<?xml version="1.0" standalone="no"?><!DOCTYPE svg PUBLIC "-//W3C//DTD SVG 1.1//EN" "http://www.w3.org/Graphics/SVG/1.1/DTD/svg11.dtd"><svg class="icon" width="200px" height="200.00px" viewBox="0 0 1024 1024" version="1.1" xmlns="http://www.w3.org/2000/svg"><path fill="#e6e6e6" d="M841.169463 906.068054 841.169463 166.213579 724.185099 64.265676 334.871325 209.746048 334.871325 246.13277 688.434873 126.962623 688.434873 959.449845 923.803485 959.449845 923.803485 906.068054 841.169463 906.068054 841.169463 906.068054ZM208.169645 678.149111 393.563052 641.063471 393.563052 546.997072 208.169645 595.739193 208.169645 678.149111 208.169645 678.149111ZM208.169645 960.702372 393.563052 960.702372 393.563052 862.003466 208.169645 875.453802 208.169645 960.702372 208.169645 960.702372ZM208.169645 818.97344 393.563052 801.069675 393.563052 707.158818 208.169645 738.326679 208.169645 818.97344 208.169645 818.97344ZM208.169645 534.607904 393.563052 483.587903 393.563052 385.873418 208.169645 448.595948 208.169645 534.607904 208.169645 534.607904ZM599.200526 291.65557 494.509139 228.050949 100.379687 370.162598 100.182188 962.697819 152.099628 962.697819 152.099628 398.819265 446.990892 301.703413 446.990892 959.701578 599.219969 959.701578 599.200526 291.65557 599.200526 291.65557ZM599.200526 291.65557" /></svg>