<?xml version="1.0" standalone="no"?><!DOCTYPE svg PUBLIC "-//W3C//DTD SVG 1.1//EN" "http://www.w3.org/Graphics/SVG/1.1/DTD/svg11.dtd"><svg class="icon" width="200px" height="200.00px" viewBox="0 0 1024 1024" version="1.1" xmlns="http://www.w3.org/2000/svg"><path fill="#2c2c2c" d="M289.608445 353.456101H734.263641c17.538445 0 31.771611-14.220886 31.771611-31.760355 0-17.537422-14.233166-31.770588-31.771611-31.770587H289.608445c-17.537422 0-31.770588 14.233166-31.770587 31.770587 0 17.539468 14.233166 31.760354 31.770587 31.760355M419.323762 162.622798h158.807913c26.342971 0 47.64616-21.339004 47.64616-47.621601 0-26.307156-21.37482-47.656393-47.64616-47.656393H419.323762c-26.319435 0-47.669696 21.349237-47.669695 47.656393 0 26.282596 21.350261 47.621601 47.669695 47.621601M289.608445 670.554132c-17.537422 0-31.770588 14.233166-31.770587 31.771611 0 17.513886 14.234189 31.746028 31.770587 31.746028H734.263641c17.538445 0 31.771611-14.232143 31.771611-31.746028 0-17.538445-14.233166-31.771611-31.771611-31.771611H289.608445zM829.552891 99.104135h-31.771611c-17.537422 0-31.770588 14.234189-31.770587 31.770588 0 17.539468 14.233166 31.772634 31.770587 31.772634h31.771611c35.027771 0 63.518662 28.477588 63.518662 63.505359v603.475388c0 35.027771-28.490891 63.506383-63.518662 63.506383H194.342732c-35.026748 0-63.542198-28.477588-63.542199-63.506383V226.152716c0-35.027771 28.515451-63.505359 63.542199-63.505359h31.748074c17.512862 0 31.746028-14.234189 31.746029-31.772634 0-17.537422-14.233166-31.770588-31.746029-31.770588h-31.748074c-70.151733 0-127.059837 56.896848-127.059838 127.049605V829.604568c0 70.175269 56.908104 127.048581 127.059838 127.048581h635.210159c70.152756 0 127.037325-56.873312 127.037325-127.048581V226.152716c-0.001023-70.152756-56.884568-127.048581-127.037325-127.048581M734.263641 479.985866H289.608445c-17.537422 0-31.770588 14.234189-31.770587 31.772634s14.234189 31.771611 31.770587 31.771611H734.263641c17.538445 0 31.771611-14.233166 31.771611-31.771611 0-17.539468-14.234189-31.772634-31.771611-31.772634" /></svg>