<?xml version="1.0" standalone="no"?><!DOCTYPE svg PUBLIC "-//W3C//DTD SVG 1.1//EN" "http://www.w3.org/Graphics/SVG/1.1/DTD/svg11.dtd"><svg class="icon" width="200px" height="200.00px" viewBox="0 0 1024 1024" version="1.1" xmlns="http://www.w3.org/2000/svg"><path fill="#e6e6e6" d="M896 128c38.4 0 64 25.6 64 64l0 448c0 38.4-25.6 64-64 64L128 704c-38.4 0-64-25.6-64-64L64 192c0-38.4 25.6-64 64-64L896 128M896 64 128 64C57.6 64 0 121.6 0 192l0 448c0 70.4 57.6 128 128 128l768 0c70.4 0 128-57.6 128-128L1024 192C1024 121.6 966.4 64 896 64L896 64zM640 896 640 832 384 832 384 896 192 896 192 960 832 960 832 896ZM192 448l128 0 0 192-128 0 0-192ZM448 256l128 0 0 384-128 0 0-384ZM704 384l128 0 0 256-128 0 0-256Z" /></svg>