<?xml version="1.0" standalone="no"?><!DOCTYPE svg PUBLIC "-//W3C//DTD SVG 1.1//EN" "http://www.w3.org/Graphics/SVG/1.1/DTD/svg11.dtd"><svg class="icon" width="200px" height="200.00px" viewBox="0 0 1024 1024" version="1.1" xmlns="http://www.w3.org/2000/svg"><path fill="#2c2c2c" d="M354.719372 143.077649l0 32.940227-0.409322 0 0.624217 207.333092 0.053212 0c0.76748 292.700365-0.106424 335.455121-0.49835 339.898317-0.124843 0.945535-2.944052 22.626323-18.630313 25.714661-6.011924 1.195222-29.405727 1.998517-60.564377 1.998517-91.879594 0.962931-145.768945 42.86118-145.768945 114.792443 0 60.473303 8.976442 96.520287 59.47558 126.356826 25.53456 11.7056 56.977689 23.642466 96.626711 23.642466 80.851423 0 146.786111-46.89403 153.049768-107.191324 2.963495-12.811794 4.498454-27.211758 4.498454-42.806945l0-564.55803 363.182626-90.702792c0.413416 180.047656 0.322341 366.021278-0.587378 377.211131-0.034792 0.213871-2.855024 22.500457-18.540262 25.604144-6.031367 1.178849-30.227442 1.998517-60.653405 1.998517l-0.106424 0c-91.182722 0-145.645125 42.899042-145.645125 114.811886 0 60.437487 8.975419 96.484472 59.510372 126.354779 25.571399 11.688203 57.049321 23.642466 96.590895 23.642466 80.83505 0 146.788158-46.89403 153.051815-107.187231 2.997264-12.849656 4.496407-27.249621 4.496407-42.808992L894.47553 8.246825 354.719372 143.077649zM864.352465 730.120786c0 13.151531-1.230014 25.12319-3.997034 37.544081-4.852518 45.698808-59.06421 81.495082-123.429147 81.495082-33.905204 0-61.670571-10.618848-82.937944-20.23588-34.17331-20.288069-43.043329-40.596604-43.043329-98.803283 0-72.966848 72.377424-83.850733 117.290333-83.850733 19.253506 0 53.267181-0.321318 64.651462-2.534729 29.940916-5.92392 41.005926-35.849486 42.827411-52.676733 1.713015-16.22145 0.731664-384.615775 0.712221-400.283616l-0.070608-19.646456L413.052942 276.839119l0 588.915787c0 13.187347-1.231037 25.161053-3.996011 37.560454-4.854565 45.683459-59.065234 81.476663-123.43017 81.476663-34.010605 0-61.741179-10.614755-82.975806-20.231787-34.154891-20.274766-43.004443-40.580231-43.004443-98.80533 0-72.931033 72.323189-83.833337 117.825522-83.833337 19.129686 0 52.839439-0.337691 64.080457-2.550079 29.959336-5.89015 41.022299-35.834136 42.843784-52.66036 1.071402-10.224876 1.300622-131.780349 0.660032-361.239368l-0.214894-198.089567L864.352465 47.610344 864.352465 730.120786z" /></svg>