<?xml version="1.0" standalone="no"?><!DOCTYPE svg PUBLIC "-//W3C//DTD SVG 1.1//EN" "http://www.w3.org/Graphics/SVG/1.1/DTD/svg11.dtd"><svg class="icon" width="200px" height="200.00px" viewBox="0 0 1024 1024" version="1.1" xmlns="http://www.w3.org/2000/svg"><path fill="#2c2c2c" d="M764.908592 382.980531 161.975557 382.980531c-29.225625 0-53.002145 23.77652-53.002145 53.002145l0 402.62187c0 29.226648 23.77652 53.002145 53.002145 53.002145l602.933035 0c29.225625 0 53.002145-23.775496 53.002145-53.002145L817.910737 435.981652C817.910737 406.757051 794.134217 382.980531 764.908592 382.980531zM792.037463 838.603523c0 14.95869-12.170181 27.128871-27.128871 27.128871L161.975557 865.732393c-14.95869 0-27.127847-12.170181-27.127847-27.128871L134.847709 435.981652c0-14.95869 12.170181-27.127847 27.127847-27.127847l602.933035 0c14.95869 0 27.128871 12.170181 27.128871 27.127847L792.037463 838.603523zM210.664465 329.08197c1.369184 0.461511 2.761903 0.680499 4.131087 0.680499 5.40101 0 10.438747-3.409656 12.258185-8.810666 2.093684-6.218632 4.449335-12.42703 6.996344-18.451234 41.425482-97.94166 136.901996-161.227008 243.237837-161.227008 91.503017 0 175.180811 46.349631 223.840044 123.986849 3.794419 6.053879 11.780301 7.886621 17.832134 4.091178 6.053879-3.794419 7.885598-11.778254 4.091178-17.832134-25.603121-40.850383-61.299111-74.982762-103.231129-98.707093-43.2572-24.474414-92.544743-37.412075-142.532227-37.412075-116.753097 0-221.583654 69.484537-267.067568 177.021739-2.799766 6.619768-5.387707 13.440104-7.688099 20.271696C200.252325 319.463915 203.893248 326.802044 210.664465 329.08197zM463.442586 505.848906c-31.662117 0-57.331753 25.667589-57.331753 57.331753 0 25.504884 16.661472 47.109947 39.690978 54.553477l0 76.279291c0 9.741875 7.896854 17.640776 17.640776 17.640776 9.741875 0 17.640776-7.899924 17.640776-17.640776l0-76.279291c23.028483-7.442506 39.690978-29.048593 39.690978-54.553477C520.774339 531.516496 495.104703 505.848906 463.442586 505.848906z" /></svg>